<svg data-name="Layer 1" xmlns="http://www.w3.org/2000/svg" viewBox="0 0 99.47 277.05"><path d="M.22 0L0 277.06h99.25L99.47 0zm51.16 231.51c-21.93 0-45-27.55-32.32-72.19a294.73 294.73 0 0011-78.28 4.82 4.82 0 014.82-4.85h32.91a4.81 4.81 0 014.82 4.83 297.37 297.37 0 0011 78.3c12.71 44.64-10.78 72.19-32.23 72.19z" fill="#F4F2EB"/><path d="M78.47 66.46c.25-4.65.54-9.33 1.21-13.94.24-1.57-2.17-2.25-2.41-.66-.71 4.83-1 9.73-1.3 14.6-.09 1.61 2.41 1.6 2.5 0z" fill="#262262"/><path d="M78.12 79.94c0-1.66 0-3.33.05-5a1.25 1.25 0 00-2.5 0c0 1.66-.05 3.33-.05 5a1.25 1.25 0 002.5 0z" fill="transparent"/><path d="M91.75 166.48c-2.69-13.62-7.24-26.74-9.66-40.44a270.43 270.43 0 01-3.84-37.88c0-1.6-2.55-1.61-2.5 0a276.32 276.32 0 003.62 36.76c2.42 14.33 7.16 28 10 42.22.32 1.58 2.73.91 2.42-.66zM93.42 193.51q.25-2.91.3-5.83a1.25 1.25 0 00-2.5 0q0 2.93-.3 5.83c-.13 1.61 2.37 1.6 2.5 0zM46.66 276.44h32.33a1.28 1.28 0 001.21-1.58c-.77-5.09-5.6-8.54-10.25-9.74-2.45-.63-4.66-.4-6.5-2.44a16 16 0 01-3-6.17 62.1 62.1 0 01-2.14-14.48c-.16-2.81-.73-3 2-3.66a36.68 36.68 0 006.45-2.14 39.15 39.15 0 0010.92-7.09c7.51-6.87 11.91-16.24 14.24-26 .37-1.57-2-2.23-2.41-.67-4 17-15.08 31.1-32.94 34.11a1.25 1.25 0 00-.91 1.21c.17 8.15.18 19.22 5.43 26 3.07 3.95 7.21 2.77 11.34 4.94a9.82 9.82 0 015.32 6.82l1.2-1.58H46.66a1.25 1.25 0 000 2.5zM41.66 276.44h1.67a1.25 1.25 0 000-2.5h-1.67a1.25 1.25 0 000 2.5zM19.54 126.84c-5.29 28.77-19.09 58.64-5.84 87.42 4 8.62 10.47 16.1 19 20.42a38.56 38.56 0 005.92 2.43c1.57.5 5 .76 5.5 1.77.91 1.74-.38 6.8-.61 8.74a45.46 45.46 0 01-2.16 10.19c-1.41 3.88-3.08 5.89-7.13 6.73a17.41 17.41 0 00-7.23 2.84 12 12 0 00-4.82 7.48 1.27 1.27 0 001.2 1.58h12.3a1.25 1.25 0 000-2.5h-12.3l1.21 1.58a9.85 9.85 0 014.62-6.63c4-2.5 8.58-1.24 11.74-5 5.58-6.7 5.54-18.28 5.72-26.5a1.25 1.25 0 00-.91-1.2c-17.33-2.57-29-16.05-33.14-32.55-6.53-26 4.71-50.83 9.35-76.09.29-1.58-2.12-2.25-2.41-.67zM21.64 112.95c-.18 1.49-.38 3-.59 4.47a1.31 1.31 0 00.87 1.54 1.26 1.26 0 001.54-.88c.24-1.71.47-3.42.68-5.13a1.24 1.24 0 00-1.25-1.25 1.28 1.28 0 00-1.25 1.25zM22.16 52.52c2.24 15.42 1.87 31.45.8 46.93-.11 1.6 2.39 1.6 2.5 0 1.09-15.73 1.38-31.94-.89-47.59-.23-1.59-2.64-.91-2.41.66z" fill="#262262"/><path d="M49.51 205.1c1.65 4.78-4.68 6.69-7.47 8.19-2 1.08-4.6 3.16-6.83 3.68-4.94 1.15-6.47-4.43-8.12-7.49l-2.35-4.38c-1.2-2.23-1.43-2.08-.61-4.88 1-3.49 3.61-4 6.78-5.69l4.71-2.54c2.06-1.1 1.84-1.22 4.55-.42 3.48 1 4 3.62 5.68 6.77l3.72 6.91c.38.7 1.46.07 1.08-.63l-4.17-7.75c-1.14-2.13-2.26-5.45-4.37-6.86-2.39-1.6-4.6-.45-6.81.74-3.26 1.75-6.57 3.42-9.78 5.26-6.25 3.57-2.59 8.37 0 13.25 2.41 4.48 4.47 11.46 10.81 8.5 3.67-1.71 7.27-3.82 10.79-5.81 2.94-1.65 4.81-3.55 3.55-7.19-.22-.75-1.43-.42-1.16.34z" fill="#262262"/><path d="M63.12 220.96c-2.52 4.33-8.18.76-11.09-.37-2.12-.81-5.41-1.43-7.25-2.78-4-3-.8-7.85.44-11.07l1.78-4.63c.92-2.38.64-2.45 3.33-3.62 3.32-1.46 5.39.16 8.74 1.45l5 1.93c2.18.83 2.12.59 3.26 3.18 1.45 3.32-.18 5.41-1.46 8.74l-2.81 7.32c-.29.75.92 1.07 1.2.33l3.16-8.21c.9-2.34 2.93-5.73 2.27-8.36s-2.84-3.27-5-4.09c-3.45-1.32-6.88-2.74-10.37-4-6.79-2.42-8 3.56-10 8.72-1.84 4.78-5.74 10.84.66 13.71 3.69 1.66 7.62 3 11.43 4.4 3.21 1.16 5.82 1.27 7.75-2a.63.63 0 00-1.04-.65z" fill="#262262"/><path d="M63.61 205.28c-5 .61-5.58-5.92-6.47-9-.66-2.26-2.06-5.09-2.16-7.46-.23-5 5.72-5.43 9-6.38l5.15-1.49c2.25-.65 2.05-.81 4.55.56s2.26 1.26 2.91 3.53l1.36 4.69 1.36 4.69c.67 2.32.83 2-.56 4.55s-1.26 2.25-3.53 2.91l-4.69 1.36-7.07 2a.622.622 0 00.33 1.2l8.45-2.45c2.31-.67 5.8-1.07 7.64-2.82 2.08-2 1.43-4.39.73-6.8-1-3.55-2-7.14-3.09-10.67-2.19-6.88-7.6-4.33-12.95-2.78-4.84 1.4-12.15 2-10.61 8.77.89 3.94 2.2 7.91 3.41 11.76 1 3.19 2.47 5.48 6.26 5 .77-.02.78-1.27-.02-1.17zM79.68 51.86c-.57-2.86-5.56-3.53-7.76-4a113.46 113.46 0 00-23-1.62 100.51 100.51 0 00-20.34 1.85c-1.91.43-6.68 1.24-6.68 4.06s4.77 3.63 6.68 4.06a99.8 99.8 0 0020.34 1.85 114.92 114.92 0 0023-1.62c2.24-.44 7.19-1.09 7.76-4 .32-1.57-2.09-2.24-2.41-.66-.4 2-8.31 2.6-9.75 2.79a127.56 127.56 0 01-15.75.95 136.3 136.3 0 01-16.41-.79c-1.08-.13-10.38-.92-10.58-2.62-.34-2.9 23.87-3.42 26-3.42a135.51 135.51 0 0115.47.8c1.51.17 10.55.76 11 3 .34 1.61 2.75.94 2.43-.63z" fill="#262262"/><path d="M87.52 197.34l-23.84-86.4L34.83 6.28a14.4 14.4 0 00-.8-2.91c-2.49-4.71-8.3-3.46-11.66-.87-7.2 5.52-14.2 11.31-21.29 17-1.26 1 .52 2.76 1.77 1.77L22.52 5.59c2.43-1.93 7.3-4.63 9.22-1.09a16.69 16.69 0 01.91 3.31l10.84 39.27 33.29 120.63 8.36 30.31a1.25 1.25 0 002.41-.67z" fill="#262262"/><path id="liquidFillArea" d="M83.61 159.34a297.37 297.37 0 01-11-78.3 4.81 4.81 0 00-4.82-4.83H34.83a4.82 4.82 0 00-4.82 4.85 294.73 294.73 0 01-11 78.28C6.3 203.98 29.4 231.53 51.33 231.53c21.5-.02 44.99-27.57 32.28-72.19z" fill="transparent" stroke="transparent" stroke-miterlimit="10"/></svg>
