
<svg xmlns="http://www.w3.org/2000/svg" viewBox="0 0 194.83 277.73">
  <g id="Layer_2" data-name="Layer 2">
    <g id="Layer_1-2" data-name="Layer 1">
      <g>
        <path d="M0,0V275.19l194.83,2.54V0ZM102.13,231.51c-21.93,0-45-27.55-32.32-72.19A294.31,294.31,0,0,0,80.77,81a4.82,4.82,0,0,1,4.83-4.84h32.9A4.83,4.83,0,0,1,123.33,81a296.78,296.78,0,0,0,11,78.3C147.08,204,123.59,231.51,102.13,231.51Z" style="fill: #f4f2eb"/>
        <path d="M129.22,66.46c.26-4.65.54-9.33,1.22-13.94.23-1.58-2.18-2.25-2.41-.67-.71,4.84-1,9.73-1.31,14.61-.09,1.6,2.41,1.6,2.5,0Z" style="fill: #24445E"/>
        <path d="M128.88,79.94c0-1.67,0-3.33,0-5a1.25,1.25,0,0,0-2.5,0c0,1.66,0,3.32,0,5a1.25,1.25,0,0,0,2.5,0Z" style="fill: #24445E"/>
        <path d="M142.5,166.47c-2.69-13.61-7.24-26.73-9.66-40.43A270.43,270.43,0,0,1,129,88.16c-.05-1.61-2.55-1.61-2.5,0a274.37,274.37,0,0,0,3.63,36.75c2.41,14.33,7.15,28,10,42.23.31,1.57,2.72.91,2.41-.67Z" style="fill: #24445E"/>
        <path d="M144.18,193.51q.24-2.91.3-5.83a1.25,1.25,0,0,0-2.5,0q-.06,2.92-.3,5.83c-.14,1.61,2.36,1.6,2.5,0Z" style="fill: #24445E"/>
        <path d="M97.42,276.44h32.32a1.28,1.28,0,0,0,1.21-1.59c-.76-5.09-5.6-8.53-10.25-9.73-2.45-.63-4.66-.4-6.5-2.44a16.27,16.27,0,0,1-3-6.17A62.18,62.18,0,0,1,109.1,242c-.15-2.8-.73-3,2-3.65a36.78,36.78,0,0,0,6.46-2.14,39.29,39.29,0,0,0,10.92-7.09c7.51-6.87,11.9-16.25,14.23-26,.37-1.57-2-2.24-2.41-.67-4,17-15.07,31.1-32.93,34.11a1.25,1.25,0,0,0-.92,1.21c.18,8.14.18,19.22,5.44,26,3.06,3.95,7.2,2.77,11.34,4.93a9.85,9.85,0,0,1,5.31,6.83l1.2-1.58H97.42a1.25,1.25,0,0,0,0,2.5Z" style="fill: #24445E"/>
        <path d="M92.42,276.44h1.66a1.25,1.25,0,0,0,0-2.5H92.42a1.25,1.25,0,0,0,0,2.5Z" style="fill: #24445E"/>
        <path d="M70.29,126.84C65,155.61,51.2,185.48,64.45,214.26c4,8.61,10.47,16.09,19,20.42a39.27,39.27,0,0,0,5.93,2.43c1.56.5,5,.76,5.5,1.77.9,1.74-.39,6.8-.62,8.74a45.46,45.46,0,0,1-2.16,10.19c-1.41,3.88-3.08,5.89-7.13,6.73a17.47,17.47,0,0,0-7.23,2.84,12.08,12.08,0,0,0-4.82,7.47,1.27,1.27,0,0,0,1.2,1.59H86.42a1.25,1.25,0,0,0,0-2.5H74.11l1.21,1.58a9.89,9.89,0,0,1,4.62-6.63c4-2.51,8.58-1.24,11.75-5.05,5.57-6.69,5.53-18.27,5.72-26.49a1.25,1.25,0,0,0-.92-1.2c-17.33-2.58-29-16.05-33.14-32.55-6.53-26,4.71-50.84,9.35-76.1.29-1.57-2.12-2.24-2.41-.66Z" style="fill: #24445E"/>
        <path d="M72.4,112.94c-.19,1.5-.39,3-.6,4.48a1.29,1.29,0,0,0,.88,1.53,1.26,1.26,0,0,0,1.54-.87c.24-1.71.46-3.42.68-5.14a1.27,1.27,0,0,0-1.25-1.25,1.28,1.28,0,0,0-1.25,1.25Z" style="fill: #24445E"/>
        <path d="M72.91,52.52c2.24,15.42,1.87,31.45.81,46.92-.12,1.61,2.39,1.6,2.5,0,1.08-15.72,1.38-31.93-.9-47.59-.23-1.58-2.64-.91-2.41.67Z" style="fill: #24445E"/>

        <g id="icecube-group">
          <path class="ice-cube" d="M100.26,205.09c1.66,4.78-4.68,6.7-7.47,8.2-2,1.07-4.6,3.16-6.83,3.67-4.94,1.15-6.47-4.42-8.11-7.49l-2.36-4.37c-1.2-2.24-1.43-2.08-.61-4.89,1-3.49,3.61-4,6.78-5.68L86.38,192c2.05-1.11,1.84-1.22,4.54-.43,3.48,1,4,3.63,5.69,6.78l3.71,6.9c.38.71,1.46.08,1.08-.63l-4.17-7.74c-1.14-2.13-2.26-5.45-4.37-6.87-2.39-1.6-4.59-.45-6.81.74-3.25,1.75-6.57,3.43-9.78,5.26-6.25,3.57-2.59,8.38,0,13.26,2.41,4.47,4.47,11.45,10.81,8.5,3.67-1.71,7.27-3.82,10.79-5.81,2.94-1.66,4.82-3.55,3.55-7.19C101.2,204,100,204.33,100.26,205.09Z" style="fill: #24445E"/>
          <path class="ice-cube" d="M113.87,221c-2.52,4.34-8.17.76-11.09-.36-2.11-.81-5.41-1.43-7.24-2.79-4.05-3-.8-7.84.43-11.06l1.79-4.64c.91-2.37.63-2.44,3.32-3.62,3.33-1.45,5.39.17,8.74,1.46l5,1.92c2.18.84,2.12.59,3.26,3.18,1.45,3.33-.17,5.41-1.45,8.75l-2.82,7.31c-.29.76.92,1.08,1.21.34l3.15-8.21c.9-2.34,2.93-5.73,2.27-8.37s-2.83-3.26-5-4.08c-3.45-1.32-6.88-2.74-10.36-4-6.8-2.42-8,3.55-10,8.71-1.83,4.78-5.73,10.85.66,13.72,3.69,1.65,7.63,3,11.43,4.4,3.22,1.16,5.83,1.27,7.75-2A.63.63,0,0,0,113.87,221Z" style="fill: #24445E"/>
          <path class="ice-cube" d="M114.36,205.27c-5,.62-5.58-5.92-6.47-9-.66-2.25-2.06-5.08-2.16-7.45-.22-5,5.72-5.43,9-6.38l5.14-1.49c2.25-.66,2-.81,4.55.56s2.26,1.26,2.92,3.53l1.35,4.69,1.36,4.68c.68,2.32.83,2-.56,4.55s-1.26,2.26-3.53,2.92l-4.69,1.36-7.07,2a.63.63,0,0,0,.34,1.21l8.44-2.45c2.32-.67,5.8-1.07,7.64-2.82,2.08-2,1.43-4.4.74-6.8-1-3.56-2-7.15-3.1-10.67-2.19-6.89-7.6-4.33-12.94-2.78-4.85,1.4-12.15,2-10.62,8.76.89,3.95,2.21,7.91,3.41,11.77,1,3.19,2.47,5.48,6.26,5C115.15,206.43,115.16,205.17,114.36,205.27Z" style="fill: #24445E"/>
        </g>


        <path d="M130.44,51.85c-.57-2.85-5.57-3.52-7.77-4a113.46,113.46,0,0,0-23-1.62c-6.76.08-13.71.37-20.33,1.85-1.91.43-6.68,1.24-6.68,4.06s4.76,3.63,6.68,4.05C86,57.72,92.92,58,99.68,58.09a113.46,113.46,0,0,0,23-1.62c2.24-.43,7.19-1.09,7.77-3.95.31-1.57-2.1-2.24-2.41-.67-.41,2-8.32,2.61-9.76,2.8a127.44,127.44,0,0,1-15.75,1,136.3,136.3,0,0,1-16.41-.79c-1.08-.13-10.38-.92-10.57-2.62-.34-2.9,23.86-3.42,26-3.42a135.51,135.51,0,0,1,15.47.8c1.52.17,10.55.75,11,3C128.34,54.1,130.75,53.43,130.44,51.85Z" style="fill: #24445E"/>
        <path id="liquidFillArea" d="M134.36,159.32a296.78,296.78,0,0,1-11-78.3,4.83,4.83,0,0,0-4.83-4.83H85.6A4.82,4.82,0,0,0,80.77,81a294.31,294.31,0,0,1-11,78.29C57.1,204,80.2,231.51,102.13,231.51,123.59,231.51,147.08,204,134.36,159.32Z" style="fill: transparent;stroke: transparent;stroke-miterlimit: 10"/>
        <path id="straw" d="M138.27,197.31,114.43,110.9,85.56,6.28a15.21,15.21,0,0,0-.81-2.92c-2.49-4.7-8.29-3.46-11.66-.87C65.9,8,58.89,13.81,51.8,19.46c-1.26,1,.52,2.76,1.77,1.77L73.24,5.55c2.43-1.94,7.31-4.63,9.22-1.09a16,16,0,0,1,.91,3.31L94.21,47,127.5,167.67l8.36,30.3a1.25,1.25,0,0,0,2.41-.66Z" style="fill: #24445E"/>
      </g>
    </g>
  </g>
</svg>
